<svg width="258" height="52" viewBox="0 0 258 52" fill="none" xmlns="http://www.w3.org/2000/svg">
<g filter="url(#filter0_d)">
<path d="M213.307 14.1376C211.672 10.2789 208.945 6.99783 205.515 4.67776C202.085 2.35778 197.942 0.999412 193.5 1C190.539 0.999832 187.709 1.60309 185.137 2.69304C181.279 4.32838 177.998 7.05494 175.678 10.4856C173.358 13.9154 171.999 18.0578 172 22.5C172 25.4607 172.603 28.2904 173.693 30.8624C175.328 34.7211 178.055 38.0022 181.485 40.3222C184.915 42.6423 189.058 44.0006 193.5 44C196.461 44.0002 199.291 43.3969 201.863 42.307C205.721 40.6717 209.002 37.9451 211.322 34.5144C213.642 31.0846 215.001 26.9422 215 22.5C215 19.5392 214.397 16.7096 213.307 14.1376ZM210.667 29.7441C209.252 33.0851 206.885 35.9357 203.909 37.9474C200.932 39.9591 197.356 41.1327 193.5 41.1333C190.928 41.1331 188.484 40.611 186.256 39.6674C182.915 38.2522 180.064 35.8843 178.053 32.9087C176.041 29.932 174.867 26.3561 174.867 22.5C174.867 19.9285 175.389 17.4837 176.333 15.2559C177.748 11.9149 180.115 9.06426 183.091 7.05259C186.068 5.04074 189.644 3.86723 193.5 3.86664C196.072 3.86681 198.516 4.38894 200.744 5.3325C204.085 6.74772 206.936 9.11558 208.947 12.0912C210.959 15.0679 212.133 18.6437 212.133 22.5C212.133 25.0715 211.611 27.5163 210.667 29.7441Z" fill="url(#paint0_linear)"/>
<path d="M201.915 29.5125C201.717 29.5124 201.536 29.4732 201.369 29.4029C201.119 29.2975 200.902 29.1178 200.751 28.8932C200.675 28.781 200.616 28.6583 200.575 28.5277C200.535 28.3969 200.512 28.2584 200.512 28.1101V15.4877H201.915C202.689 15.4877 203.317 14.8598 203.317 14.0853C203.317 13.3108 202.689 12.6828 201.915 12.6828H185.085C184.311 12.6828 183.683 13.3108 183.683 14.0853C183.683 14.8597 184.311 15.4877 185.085 15.4877H186.488V30.9149C186.488 31.6894 187.116 32.3174 187.89 32.3174C188.665 32.3174 189.292 31.6894 189.292 30.9149V15.4877H197.707V28.11C197.707 28.6871 197.825 29.244 198.039 29.7482C198.359 30.5051 198.891 31.1447 199.561 31.598C199.897 31.8247 200.268 32.0048 200.664 32.1281C201.06 32.2514 201.482 32.3175 201.915 32.3175C202.689 32.3175 203.317 31.6895 203.317 30.915C203.317 30.1405 202.689 29.5125 201.915 29.5125Z" fill="black"/>
<path d="M201.915 29.5125C201.717 29.5124 201.536 29.4732 201.369 29.4029C201.119 29.2975 200.902 29.1178 200.751 28.8932C200.675 28.781 200.616 28.6583 200.575 28.5277C200.535 28.3969 200.512 28.2584 200.512 28.1101V15.4877H201.915C202.689 15.4877 203.317 14.8598 203.317 14.0853C203.317 13.3108 202.689 12.6828 201.915 12.6828H185.085C184.311 12.6828 183.683 13.3108 183.683 14.0853C183.683 14.8597 184.311 15.4877 185.085 15.4877H186.488V30.9149C186.488 31.6894 187.116 32.3174 187.89 32.3174C188.665 32.3174 189.292 31.6894 189.292 30.9149V15.4877H197.707V28.11C197.707 28.6871 197.825 29.244 198.039 29.7482C198.359 30.5051 198.891 31.1447 199.561 31.598C199.897 31.8247 200.268 32.0048 200.664 32.1281C201.06 32.2514 201.482 32.3175 201.915 32.3175C202.689 32.3175 203.317 31.6895 203.317 30.915C203.317 30.1405 202.689 29.5125 201.915 29.5125Z" fill="url(#paint1_linear)"/>
</g>
<path d="M27.15 13V31.55C27.15 34.9167 27.35 37.0167 27.75 37.85C27.7833 37.95 27.7833 38 27.75 38H23.25C23.1833 38 23.15 37.95 23.15 37.85C23.2167 37.7833 23.2833 37.5667 23.35 37.2C23.45 36.8333 23.55 36.2 23.65 35.3C23.75 34.4 23.8 33.4167 23.8 32.35V12.1C23.8 10.8333 23.7167 9.75 23.55 8.85H8.3C8.16667 9.91667 8.1 11 8.1 12.1V32.35C8.1 34.8167 8.3 36.65 8.7 37.85C8.76667 37.95 8.75 38 8.65 38H4.15C4.11667 38 4.11667 37.95 4.15 37.85C4.55 36.9167 4.75 34.8167 4.75 31.55V13C4.75 10.2333 4.41667 8.33333 3.75 7.3C3.61667 7.16667 3.63333 7.1 3.8 7.1H28.1C28.2 7.1 28.2167 7.16667 28.15 7.3C27.4833 8.33333 27.15 10.2333 27.15 13ZM48.9859 25.65C48.5859 25.65 48.1193 25.6667 47.5859 25.7C47.0526 25.7 46.7026 25.7 46.5359 25.7L43.4359 34.4C43.0693 35.4333 42.8359 36.5333 42.7359 37.7C42.7359 37.9 42.6359 38 42.4359 38H39.3359C39.0359 38 38.9859 37.9 39.1859 37.7C40.1193 36.9667 41.1693 35.0667 42.3359 32L51.2859 7.85C51.7193 6.78333 52.1026 6.25 52.4359 6.25C52.7693 6.25 53.1193 6.71666 53.4859 7.65L59.8359 24.65C62.7693 32.5167 64.8859 36.85 66.1859 37.65C66.4526 37.8833 66.4526 38 66.1859 38H61.5859C61.3859 38 61.2359 37.9167 61.1359 37.75C61.0359 37.5833 60.8193 37.0333 60.4859 36.1C60.2526 35.4333 60.0526 34.8833 59.8859 34.45L56.7359 25.7C56.2026 25.6667 55.2193 25.65 53.7859 25.65H48.9859ZM51.3859 12.1L47.1359 23.95C47.8359 24.05 48.5859 24.1 49.3859 24.1H53.5859C54.7526 24.1 55.5859 24.05 56.0859 23.95L51.8359 12.1C51.8026 11.8667 51.7193 11.75 51.5859 11.75C51.4859 11.75 51.4193 11.8667 51.3859 12.1ZM78.3926 32.1V13.55C78.3926 10.35 78.1926 8.26667 77.7926 7.3C77.7259 7.16667 77.7259 7.1 77.7926 7.1H82.2926C82.3259 7.1 82.3426 7.11666 82.3426 7.15C82.3759 7.18333 82.3759 7.21666 82.3426 7.25C81.9426 8.85 81.7426 10.7 81.7426 12.8V20.05C81.9092 20.3833 82.2926 20.55 82.8926 20.55H96.2926C96.5592 20.55 96.7759 20.5167 96.9426 20.45C97.1426 20.35 97.2759 20.2667 97.3426 20.2L97.4426 20.05V12.8C97.4426 9.96666 97.2259 8.11666 96.7926 7.25C96.7926 7.15 96.8259 7.1 96.8926 7.1H101.393C101.459 7.1 101.459 7.16667 101.393 7.3C100.993 8.13333 100.793 10.2167 100.793 13.55V32.1C100.793 34.8333 101.126 36.75 101.793 37.85C101.826 37.95 101.809 38 101.743 38H96.8426C96.7759 38 96.7592 37.95 96.7926 37.85C97.2259 37.2167 97.4426 35.6 97.4426 33V22.65C97.2426 22.2833 96.8592 22.1 96.2926 22.1H82.8926C82.3259 22.1 81.9426 22.2833 81.7426 22.65V33C81.7426 35.6333 81.9426 37.25 82.3426 37.85C82.4092 37.95 82.3926 38 82.2926 38H77.4426C77.3092 38 77.2926 37.95 77.3926 37.85C78.0592 36.75 78.3926 34.8333 78.3926 32.1ZM113.829 11.3C113.829 11.3667 113.779 11.4 113.679 11.4C113.612 11.4 113.595 11.35 113.629 11.25C114.062 8.65 114.312 7.21666 114.379 6.95C114.412 6.81667 114.495 6.75 114.629 6.75C115.095 6.98333 116.995 7.1 120.329 7.1H133.729C136.262 7.03333 137.945 6.86667 138.779 6.6C138.879 6.6 138.929 6.63333 138.929 6.7C138.929 6.83333 138.945 7.08333 138.979 7.45C139.012 7.81667 139.045 8.3 139.079 8.9C139.112 9.5 139.145 9.98333 139.179 10.35C139.179 10.45 139.145 10.5 139.079 10.5L138.979 10.4C138.545 10.0667 138.195 9.83333 137.929 9.7C137.695 9.53333 137.179 9.35 136.379 9.15C135.579 8.95 134.645 8.85 133.579 8.85H128.629V30.9C128.629 31.8333 128.745 33.15 128.979 34.85C129.212 36.5167 129.429 37.5167 129.629 37.85C129.662 37.95 129.662 38 129.629 38H124.929C124.895 38 124.895 37.95 124.929 37.85C125.195 37.25 125.329 35.5667 125.329 32.8V8.85H121.329C118.295 8.85 115.795 9.66667 113.829 11.3ZM166.33 33.65C166.497 33.4833 166.58 33.5 166.58 33.7L166.13 37.45C166.064 37.8167 165.814 38 165.38 38H151.58C151.547 37.9667 151.547 37.9167 151.58 37.85C151.98 37.65 152.18 36.85 152.18 35.45V11.95C152.18 9.91667 151.68 8.36667 150.68 7.3C150.614 7.16667 150.647 7.1 150.78 7.1H160.08C162.747 7.1 164.614 7.03333 165.68 6.9C165.847 6.83333 165.93 6.88333 165.93 7.05C165.93 7.35 165.964 8.1 166.03 9.3C166.13 10.5 166.18 11.2333 166.18 11.5C166.214 11.6 166.197 11.65 166.13 11.65C166.064 11.65 166.014 11.6167 165.98 11.55C165.814 11.35 165.564 11.0833 165.23 10.75C164.93 10.4167 164.214 9.98333 163.08 9.45C161.947 8.91667 160.714 8.65 159.38 8.65C157.547 8.65 156.447 8.71667 156.08 8.85C155.714 8.98333 155.53 9.4 155.53 10.1V20.35C155.73 20.65 156.114 20.8 156.68 20.8H160.08C162.48 20.7333 164.097 20.5 164.93 20.1C165.03 20 165.08 20.0167 165.08 20.15C165.247 22.2833 165.347 23.5167 165.38 23.85C165.38 23.9833 165.347 24.05 165.28 24.05C165.247 24.05 165.197 24.0167 165.13 23.95C164.597 23.6167 163.697 23.2667 162.43 22.9C161.197 22.5333 159.83 22.35 158.33 22.35H156.68C156.08 22.35 155.697 22.5333 155.53 22.9V33.1C155.53 34.4 155.814 35.2667 156.38 35.7C156.98 36.1 157.947 36.3 159.28 36.3C160.614 36.3 161.797 36.1333 162.83 35.8C163.897 35.4333 165.064 34.7167 166.33 33.65ZM221.307 32.1V13.55C221.307 10.35 221.107 8.26667 220.707 7.3C220.64 7.16667 220.64 7.1 220.707 7.1H225.207C225.24 7.1 225.257 7.11666 225.257 7.15C225.29 7.18333 225.29 7.21666 225.257 7.25C224.857 8.85 224.657 10.7 224.657 12.8V20.05C224.823 20.3833 225.207 20.55 225.807 20.55H239.207C239.473 20.55 239.69 20.5167 239.857 20.45C240.057 20.35 240.19 20.2667 240.257 20.2L240.357 20.05V12.8C240.357 9.96666 240.14 8.11666 239.707 7.25C239.707 7.15 239.74 7.1 239.807 7.1H244.307C244.373 7.1 244.373 7.16667 244.307 7.3C243.907 8.13333 243.707 10.2167 243.707 13.55V32.1C243.707 34.8333 244.04 36.75 244.707 37.85C244.74 37.95 244.723 38 244.657 38H239.757C239.69 38 239.673 37.95 239.707 37.85C240.14 37.2167 240.357 35.6 240.357 33V22.65C240.157 22.2833 239.773 22.1 239.207 22.1H225.807C225.24 22.1 224.857 22.2833 224.657 22.65V33C224.657 35.6333 224.857 37.25 225.257 37.85C225.323 37.95 225.307 38 225.207 38H220.357C220.223 38 220.207 37.95 220.307 37.85C220.973 36.75 221.307 34.8333 221.307 32.1Z" fill="white"/>
<defs>
<filter id="filter0_d" x="168" y="1" width="51" height="51" filterUnits="userSpaceOnUse" color-interpolation-filters="sRGB">
<feFlood flood-opacity="0" result="BackgroundImageFix"/>
<feColorMatrix in="SourceAlpha" type="matrix" values="0 0 0 0 0 0 0 0 0 0 0 0 0 0 0 0 0 0 127 0"/>
<feOffset dy="4"/>
<feGaussianBlur stdDeviation="2"/>
<feColorMatrix type="matrix" values="0 0 0 0 0 0 0 0 0 0 0 0 0 0 0 0 0 0 0.25 0"/>
<feBlend mode="normal" in2="BackgroundImageFix" result="effect1_dropShadow"/>
<feBlend mode="normal" in="SourceGraphic" in2="effect1_dropShadow" result="shape"/>
</filter>
<linearGradient id="paint0_linear" x1="193.5" y1="1" x2="193.5" y2="44" gradientUnits="userSpaceOnUse">
<stop stop-color="#76E3E0"/>
<stop offset="1" stop-color="#37BAEA"/>
</linearGradient>
<linearGradient id="paint1_linear" x1="193.5" y1="12.6828" x2="193.5" y2="32.3175" gradientUnits="userSpaceOnUse">
<stop stop-color="#37BAEA"/>
<stop offset="1" stop-color="#76E3E0"/>
</linearGradient>
</defs>
</svg>
